Coordinates
version=1
nRows=6
nColumns=63
inDegrees=yes

Units are S.I. units (second, meters, Newtons, ...)
If the header above contains a line with 'inDegrees', this indicates whether rotational values are in degrees (yes) or radians (no).

endheader
time	pelvis_tilt	pelvis_list	pelvis_rotation	pelvis_tx	pelvis_ty	pelvis_tz	hip_flexion_r	hip_adduction_r	hip_rotation_r	knee_angle_r	knee_angle_r_beta	ankle_angle_r	subtalar_angle_r	mtp_angle_r	hip_flexion_l	hip_adduction_l	hip_rotation_l	knee_angle_l	knee_angle_l_beta	ankle_angle_l	subtalar_angle_l	mtp_angle_l	L5_S1_Flex_Ext	L5_S1_Lat_Bending	L5_S1_axial_rotation	L4_L5_Flex_Ext	L4_L5_Lat_Bending	L4_L5_axial_rotation	L3_L4_Flex_Ext	L3_L4_Lat_Bending	L3_L4_axial_rotation	L2_L3_Flex_Ext	L2_L3_Lat_Bending	L2_L3_axial_rotation	L1_L2_Flex_Ext	L1_L2_Lat_Bending	L1_L2_axial_rotation	L1_T12_Flex_Ext	L1_T12_Lat_Bending	L1_T12_axial_rotation	Abs_r3	Abs_r2	Abs_r1	Abs_t1	Abs_t2	neck_flexion	neck_bending	neck_rotation	arm_flex_r	arm_add_r	arm_rot_r	elbow_flex_r	pro_sup_r	wrist_flex_r	wrist_dev_r	arm_flex_l	arm_add_l	arm_rot_l	elbow_flex_l	pro_sup_l	wrist_flex_l	wrist_dev_l
4.566667	16.944475	-5.192187	138.674745	0.056582	1.006302	0.472511	18.797260	3.849588	-32.801850	27.338608	0.477149	17.251634	3.940726	0.000000	19.863387	-12.771820	20.810646	6.847224	0.119507	18.731780	4.349042	0.000000	-0.103920	-1.417951	0.325405	-0.192989	-1.885875	0.345743	-0.170730	-3.447607	0.345743	-0.118770	-3.447607	0.284730	-0.096500	-2.891486	0.264392	-0.059380	-2.196407	0.244054	-0.742289	-16.040150	1.809807	0.000000	0.000000	-18.199918	-14.355798	23.954560	56.092523	10.354555	52.634005	122.156791	89.065880	-36.002141	-11.082986	18.971091	-15.136292	-2.760733	149.815966	89.278141	-7.150578	-13.012186
4.583333	17.434555	-5.734371	139.922547	0.056784	1.004585	0.472847	19.360137	3.650460	-33.651406	26.946044	0.470297	16.981533	4.057615	0.000000	21.020749	-12.348556	21.523974	6.872036	0.119940	18.504780	4.215313	0.000000	-0.110076	-1.441820	0.346866	-0.204423	-1.917621	0.368545	-0.180844	-3.505642	0.368545	-0.125806	-3.505642	0.303507	-0.102217	-2.940160	0.281828	-0.062898	-2.233380	0.260149	-0.786264	-16.310160	1.929162	0.000000	0.000000	-18.433733	-14.058266	24.171581	55.964107	9.894299	52.777249	122.546111	89.074817	-38.173156	-12.275330	17.938982	-16.496914	-2.975730	149.817255	89.274365	-7.383588	-13.197199
4.600000	17.824006	-6.328283	140.964259	0.057518	1.002893	0.472884	19.955396	3.393281	-34.266164	26.659398	0.465294	16.838480	4.152091	0.000000	22.087219	-11.890463	21.919724	6.908482	0.120576	18.252339	4.234477	0.000000	-0.118022	-1.489510	0.400973	-0.219179	-1.981049	0.426033	-0.193899	-3.621596	0.426033	-0.134888	-3.621596	0.350851	-0.109596	-3.037410	0.325790	-0.067438	-2.307252	0.300729	-0.843023	-16.849640	2.230089	0.000000	0.000000	-18.645698	-13.725195	23.802803	55.826566	9.400585	52.825046	122.972253	89.092874	-40.856682	-13.544748	16.776794	-17.820877	-3.429979	149.820829	89.252082	-7.681227	-13.761813
4.616667	18.135553	-6.930944	141.788948	0.058661	1.001292	0.472660	20.553725	3.118337	-34.687084	26.468043	0.461955	16.807525	4.240253	0.000000	23.039623	-11.456461	22.010693	6.952676	0.121347	17.995038	4.444595	0.000000	-0.127651	-1.552276	0.478646	-0.237060	-2.064527	0.508562	-0.209717	-3.774204	0.508562	-0.145892	-3.774204	0.418816	-0.118536	-3.165401	0.388900	-0.072940	-2.404475	0.358985	-0.911795	-17.559655	2.662088	0.000000	0.000000	-18.816088	-13.432338	23.007501	55.692726	8.884676	52.838689	123.366093	89.118981	-44.070429	-15.005096	15.520085	-19.049008	-4.081632	149.826773	89.211987	-7.980339	-14.707703
4.633333	18.390366	-7.515163	142.381636	0.060094	0.999842	0.472212	21.141726	2.853047	-34.946166	26.367249	0.460195	16.865005	4.346003	0.000000	23.880844	-11.092228	21.673165	7.023908	0.122590	17.797998	5.050414	0.000000	-0.137263	-1.622170	0.570076	-0.254910	-2.157487	0.605705	-0.225509	-3.944145	0.605705	-0.156877	-3.944145	0.498816	-0.127462	-3.307930	0.463186	-0.078432	-2.512742	0.427557	-0.980453	-18.350317	3.170590	0.000000	0.000000	-18.929682	-13.218570	22.014539	55.554575	8.364162	52.853486	123.703749	89.153564	-47.567897	-16.568903	14.225776	-20.123188	-4.890916	149.834569	89.160960	-8.200408	-16.032565
4.650000	18.605333	-8.059193	142.738773	0.061661	0.998588	0.471565	21.701479	2.622056	-35.065947	26.342024	0.459755	16.993158	4.498205	0.000000	24.574795	-10.819858	21.245051	7.072683	0.123442	17.591354	5.608755	0.000000	-0.144665	-1.692430	0.664578	-0.268658	-2.250932	0.706114	-0.237670	-4.114974	0.706114	-0.165338	-4.114974	0.581505	-0.134336	-3.451203	0.539969	-0.082662	-2.621574	0.498433	-1.033329	-19.145106	3.696182	0.000000	0.000000	-18.976878	-13.101520	21.014195	55.388349	7.858499	52.861693	124.005741	89.199518	-50.938247	-17.954000	12.964789	-21.006491	-5.724509	149.843339	89.108352	-8.477151	-17.706560
